<?xml version="1.0" encoding="utf-8" standalone="no"?>
<!DOCTYPE svg PUBLIC "-//W3C//DTD SVG 1.1//EN"
  "http://www.w3.org/Graphics/SVG/1.1/DTD/svg11.dtd">
<!-- Created with matplotlib (http://matplotlib.sourceforge.net/) -->
<svg height="288pt" version="1.1" viewBox="0 0 576 288" width="576pt" xmlns="http://www.w3.org/2000/svg" xmlns:xlink="http://www.w3.org/1999/xlink">
 <defs>
  <style type="text/css">
*{stroke-linecap:square;stroke-linejoin:round;}
  </style>
 </defs>
 <g id="figure_1">
  <g id="patch_1">
   <path d="
M0 288
L576 288
L576 0
L0 0
z
" style="fill:#ffffff;"/>
  </g>
  <g id="axes_1">
   <g id="patch_2">
    <path d="
M72 259.2
L518.4 259.2
L518.4 28.8
L72 28.8
z
" style="fill:#ffffff;"/>
   </g>
   <g id="patch_3">
    <path clip-path="url(#p8b67f3e247)" d="
M74.232 259.2
L78.696 259.2
L78.696 215.338
L74.232 215.338
z
" style="fill:#ff0000;stroke:#000000;"/>
   </g>
   <g id="patch_4">
    <path clip-path="url(#p8b67f3e247)" d="
M96.552 259.2
L101.016 259.2
L101.016 202.117
L96.552 202.117
z
" style="fill:#ff0000;stroke:#000000;"/>
   </g>
   <g id="patch_5">
    <path clip-path="url(#p8b67f3e247)" d="
M118.872 259.2
L123.336 259.2
L123.336 187.325
L118.872 187.325
z
" style="fill:#ff0000;stroke:#000000;"/>
   </g>
   <g id="patch_6">
    <path clip-path="url(#p8b67f3e247)" d="
M141.192 259.2
L145.656 259.2
L145.656 189.352
L141.192 189.352
z
" style="fill:#ff0000;stroke:#000000;"/>
   </g>
   <g id="patch_7">
    <path clip-path="url(#p8b67f3e247)" d="
M163.512 259.2
L167.976 259.2
L167.976 188.508
L163.512 188.508
z
" style="fill:#ff0000;stroke:#000000;"/>
   </g>
   <g id="patch_8">
    <path clip-path="url(#p8b67f3e247)" d="
M185.832 259.2
L190.296 259.2
L190.296 177.177
L185.832 177.177
z
" style="fill:#ff0000;stroke:#000000;"/>
   </g>
   <g id="patch_9">
    <path clip-path="url(#p8b67f3e247)" d="
M208.152 259.2
L212.616 259.2
L212.616 174.454
L208.152 174.454
z
" style="fill:#ff0000;stroke:#000000;"/>
   </g>
   <g id="patch_10">
    <path clip-path="url(#p8b67f3e247)" d="
M230.472 259.2
L234.936 259.2
L234.936 178.455
L230.472 178.455
z
" style="fill:#ff0000;stroke:#000000;"/>
   </g>
   <g id="patch_11">
    <path clip-path="url(#p8b67f3e247)" d="
M252.792 259.2
L257.256 259.2
L257.256 164.662
L252.792 164.662
z
" style="fill:#ff0000;stroke:#000000;"/>
   </g>
   <g id="patch_12">
    <path clip-path="url(#p8b67f3e247)" d="
M275.112 259.2
L279.576 259.2
L279.576 172.189
L275.112 172.189
z
" style="fill:#ff0000;stroke:#000000;"/>
   </g>
   <g id="patch_13">
    <path clip-path="url(#p8b67f3e247)" d="
M297.432 259.2
L301.896 259.2
L301.896 164.003
L297.432 164.003
z
" style="fill:#ff0000;stroke:#000000;"/>
   </g>
   <g id="patch_14">
    <path clip-path="url(#p8b67f3e247)" d="
M319.752 259.2
L324.216 259.2
L324.216 162.497
L319.752 162.497
z
" style="fill:#ff0000;stroke:#000000;"/>
   </g>
   <g id="patch_15">
    <path clip-path="url(#p8b67f3e247)" d="
M342.072 259.2
L346.536 259.2
L346.536 157.181
L342.072 157.181
z
" style="fill:#ff0000;stroke:#000000;"/>
   </g>
   <g id="patch_16">
    <path clip-path="url(#p8b67f3e247)" d="
M364.392 259.2
L368.856 259.2
L368.856 165.181
L364.392 165.181
z
" style="fill:#ff0000;stroke:#000000;"/>
   </g>
   <g id="patch_17">
    <path clip-path="url(#p8b67f3e247)" d="
M386.712 259.2
L391.176 259.2
L391.176 161.447
L386.712 161.447
z
" style="fill:#ff0000;stroke:#000000;"/>
   </g>
   <g id="patch_18">
    <path clip-path="url(#p8b67f3e247)" d="
M409.032 259.2
L413.496 259.2
L413.496 160.341
L409.032 160.341
z
" style="fill:#ff0000;stroke:#000000;"/>
   </g>
   <g id="patch_19">
    <path clip-path="url(#p8b67f3e247)" d="
M431.352 259.2
L435.816 259.2
L435.816 153.08
L431.352 153.08
z
" style="fill:#ff0000;stroke:#000000;"/>
   </g>
   <g id="patch_20">
    <path clip-path="url(#p8b67f3e247)" d="
M453.672 259.2
L458.136 259.2
L458.136 152.181
L453.672 152.181
z
" style="fill:#ff0000;stroke:#000000;"/>
   </g>
   <g id="patch_21">
    <path clip-path="url(#p8b67f3e247)" d="
M475.992 259.2
L480.456 259.2
L480.456 144.944
L475.992 144.944
z
" style="fill:#ff0000;stroke:#000000;"/>
   </g>
   <g id="patch_22">
    <path clip-path="url(#p8b67f3e247)" d="
M498.312 259.2
L502.776 259.2
L502.776 158.881
L498.312 158.881
z
" style="fill:#ff0000;stroke:#000000;"/>
   </g>
   <g id="patch_23">
    <path clip-path="url(#p8b67f3e247)" d="
M78.696 259.2
L83.16 259.2
L83.16 217.579
L78.696 217.579
z
" style="fill:#008000;stroke:#000000;"/>
   </g>
   <g id="patch_24">
    <path clip-path="url(#p8b67f3e247)" d="
M101.016 259.2
L105.48 259.2
L105.48 196.988
L101.016 196.988
z
" style="fill:#008000;stroke:#000000;"/>
   </g>
   <g id="patch_25">
    <path clip-path="url(#p8b67f3e247)" d="
M123.336 259.2
L127.8 259.2
L127.8 172.288
L123.336 172.288
z
" style="fill:#008000;stroke:#000000;"/>
   </g>
   <g id="patch_26">
    <path clip-path="url(#p8b67f3e247)" d="
M145.656 259.2
L150.12 259.2
L150.12 181.732
L145.656 181.732
z
" style="fill:#008000;stroke:#000000;"/>
   </g>
   <g id="patch_27">
    <path clip-path="url(#p8b67f3e247)" d="
M167.976 259.2
L172.44 259.2
L172.44 139.422
L167.976 139.422
z
" style="fill:#008000;stroke:#000000;"/>
   </g>
   <g id="patch_28">
    <path clip-path="url(#p8b67f3e247)" d="
M190.296 259.2
L194.76 259.2
L194.76 149.221
L190.296 149.221
z
" style="fill:#008000;stroke:#000000;"/>
   </g>
   <g id="patch_29">
    <path clip-path="url(#p8b67f3e247)" d="
M212.616 259.2
L217.08 259.2
L217.08 119.368
L212.616 119.368
z
" style="fill:#008000;stroke:#000000;"/>
   </g>
   <g id="patch_30">
    <path clip-path="url(#p8b67f3e247)" d="
M234.936 259.2
L239.4 259.2
L239.4 117.687
L234.936 117.687
z
" style="fill:#008000;stroke:#000000;"/>
   </g>
   <g id="patch_31">
    <path clip-path="url(#p8b67f3e247)" d="
M257.256 259.2
L261.72 259.2
L261.72 93.2935
L257.256 93.2935
z
" style="fill:#008000;stroke:#000000;"/>
   </g>
   <g id="patch_32">
    <path clip-path="url(#p8b67f3e247)" d="
M279.576 259.2
L284.04 259.2
L284.04 89.5718
L279.576 89.5718
z
" style="fill:#008000;stroke:#000000;"/>
   </g>
   <g id="patch_33">
    <path clip-path="url(#p8b67f3e247)" d="
M301.896 259.2
L306.36 259.2
L306.36 87.3556
L301.896 87.3556
z
" style="fill:#008000;stroke:#000000;"/>
   </g>
   <g id="patch_34">
    <path clip-path="url(#p8b67f3e247)" d="
M324.216 259.2
L328.68 259.2
L328.68 64.9677
L324.216 64.9677
z
" style="fill:#008000;stroke:#000000;"/>
   </g>
   <g id="patch_35">
    <path clip-path="url(#p8b67f3e247)" d="
M346.536 259.2
L351 259.2
L351 66.2731
L346.536 66.2731
z
" style="fill:#008000;stroke:#000000;"/>
   </g>
   <g id="patch_36">
    <path clip-path="url(#p8b67f3e247)" d="
M368.856 259.2
L373.32 259.2
L373.32 50.4393
L368.856 50.4393
z
" style="fill:#008000;stroke:#000000;"/>
   </g>
   <g id="patch_37">
    <path clip-path="url(#p8b67f3e247)" d="
M391.176 259.2
L395.64 259.2
L395.64 85.9354
L391.176 85.9354
z
" style="fill:#008000;stroke:#000000;"/>
   </g>
   <g id="patch_38">
    <path clip-path="url(#p8b67f3e247)" d="
M413.496 259.2
L417.96 259.2
L417.96 70.8578
L413.496 70.8578
z
" style="fill:#008000;stroke:#000000;"/>
   </g>
   <g id="patch_39">
    <path clip-path="url(#p8b67f3e247)" d="
M435.816 259.2
L440.28 259.2
L440.28 41.7349
L435.816 41.7349
z
" style="fill:#008000;stroke:#000000;"/>
   </g>
   <g id="patch_40">
    <path clip-path="url(#p8b67f3e247)" d="
M458.136 259.2
L462.6 259.2
L462.6 52.2294
L458.136 52.2294
z
" style="fill:#008000;stroke:#000000;"/>
   </g>
   <g id="patch_41">
    <path clip-path="url(#p8b67f3e247)" d="
M480.456 259.2
L484.92 259.2
L484.92 39.4364
L480.456 39.4364
z
" style="fill:#008000;stroke:#000000;"/>
   </g>
   <g id="patch_42">
    <path clip-path="url(#p8b67f3e247)" d="
M502.776 259.2
L507.24 259.2
L507.24 35.5932
L502.776 35.5932
z
" style="fill:#008000;stroke:#000000;"/>
   </g>
   <g id="patch_43">
    <path clip-path="url(#p8b67f3e247)" d="
M83.16 259.2
L87.624 259.2
L87.624 210.652
L83.16 210.652
z
" style="fill:#bfbf00;stroke:#000000;"/>
   </g>
   <g id="patch_44">
    <path clip-path="url(#p8b67f3e247)" d="
M105.48 259.2
L109.944 259.2
L109.944 192.324
L105.48 192.324
z
" style="fill:#bfbf00;stroke:#000000;"/>
   </g>
   <g id="patch_45">
    <path clip-path="url(#p8b67f3e247)" d="
M127.8 259.2
L132.264 259.2
L132.264 208.44
L127.8 208.44
z
" style="fill:#bfbf00;stroke:#000000;"/>
   </g>
   <g id="patch_46">
    <path clip-path="url(#p8b67f3e247)" d="
M150.12 259.2
L154.584 259.2
L154.584 207.922
L150.12 207.922
z
" style="fill:#bfbf00;stroke:#000000;"/>
   </g>
   <g id="patch_47">
    <path clip-path="url(#p8b67f3e247)" d="
M172.44 259.2
L176.904 259.2
L176.904 205.132
L172.44 205.132
z
" style="fill:#bfbf00;stroke:#000000;"/>
   </g>
   <g id="patch_48">
    <path clip-path="url(#p8b67f3e247)" d="
M194.76 259.2
L199.224 259.2
L199.224 201.832
L194.76 201.832
z
" style="fill:#bfbf00;stroke:#000000;"/>
   </g>
   <g id="patch_49">
    <path clip-path="url(#p8b67f3e247)" d="
M217.08 259.2
L221.544 259.2
L221.544 202.865
L217.08 202.865
z
" style="fill:#bfbf00;stroke:#000000;"/>
   </g>
   <g id="patch_50">
    <path clip-path="url(#p8b67f3e247)" d="
M239.4 259.2
L243.864 259.2
L243.864 207.048
L239.4 207.048
z
" style="fill:#bfbf00;stroke:#000000;"/>
   </g>
   <g id="patch_51">
    <path clip-path="url(#p8b67f3e247)" d="
M261.72 259.2
L266.184 259.2
L266.184 203.462
L261.72 203.462
z
" style="fill:#bfbf00;stroke:#000000;"/>
   </g>
   <g id="patch_52">
    <path clip-path="url(#p8b67f3e247)" d="
M284.04 259.2
L288.504 259.2
L288.504 207.571
L284.04 207.571
z
" style="fill:#bfbf00;stroke:#000000;"/>
   </g>
   <g id="patch_53">
    <path clip-path="url(#p8b67f3e247)" d="
M306.36 259.2
L310.824 259.2
L310.824 204.069
L306.36 204.069
z
" style="fill:#bfbf00;stroke:#000000;"/>
   </g>
   <g id="patch_54">
    <path clip-path="url(#p8b67f3e247)" d="
M328.68 259.2
L333.144 259.2
L333.144 209.38
L328.68 209.38
z
" style="fill:#bfbf00;stroke:#000000;"/>
   </g>
   <g id="patch_55">
    <path clip-path="url(#p8b67f3e247)" d="
M351 259.2
L355.464 259.2
L355.464 204.536
L351 204.536
z
" style="fill:#bfbf00;stroke:#000000;"/>
   </g>
   <g id="patch_56">
    <path clip-path="url(#p8b67f3e247)" d="
M373.32 259.2
L377.784 259.2
L377.784 202.486
L373.32 202.486
z
" style="fill:#bfbf00;stroke:#000000;"/>
   </g>
   <g id="patch_57">
    <path clip-path="url(#p8b67f3e247)" d="
M395.64 259.2
L400.104 259.2
L400.104 201.807
L395.64 201.807
z
" style="fill:#bfbf00;stroke:#000000;"/>
   </g>
   <g id="patch_58">
    <path clip-path="url(#p8b67f3e247)" d="
M417.96 259.2
L422.424 259.2
L422.424 203.147
L417.96 203.147
z
" style="fill:#bfbf00;stroke:#000000;"/>
   </g>
   <g id="patch_59">
    <path clip-path="url(#p8b67f3e247)" d="
M440.28 259.2
L444.744 259.2
L444.744 204.984
L440.28 204.984
z
" style="fill:#bfbf00;stroke:#000000;"/>
   </g>
   <g id="patch_60">
    <path clip-path="url(#p8b67f3e247)" d="
M462.6 259.2
L467.064 259.2
L467.064 204.991
L462.6 204.991
z
" style="fill:#bfbf00;stroke:#000000;"/>
   </g>
   <g id="patch_61">
    <path clip-path="url(#p8b67f3e247)" d="
M484.92 259.2
L489.384 259.2
L489.384 200.618
L484.92 200.618
z
" style="fill:#bfbf00;stroke:#000000;"/>
   </g>
   <g id="patch_62">
    <path clip-path="url(#p8b67f3e247)" d="
M507.24 259.2
L511.704 259.2
L511.704 203.867
L507.24 203.867
z
" style="fill:#bfbf00;stroke:#000000;"/>
   </g>
   <g id="patch_63">
    <path clip-path="url(#p8b67f3e247)" d="
M87.624 259.2
L92.088 259.2
L92.088 199.091
L87.624 199.091
z
" style="fill:#0000ff;stroke:#000000;"/>
   </g>
   <g id="patch_64">
    <path clip-path="url(#p8b67f3e247)" d="
M109.944 259.2
L114.408 259.2
L114.408 178.627
L109.944 178.627
z
" style="fill:#0000ff;stroke:#000000;"/>
   </g>
   <g id="patch_65">
    <path clip-path="url(#p8b67f3e247)" d="
M132.264 259.2
L136.728 259.2
L136.728 181.591
L132.264 181.591
z
" style="fill:#0000ff;stroke:#000000;"/>
   </g>
   <g id="patch_66">
    <path clip-path="url(#p8b67f3e247)" d="
M154.584 259.2
L159.048 259.2
L159.048 173.127
L154.584 173.127
z
" style="fill:#0000ff;stroke:#000000;"/>
   </g>
   <g id="patch_67">
    <path clip-path="url(#p8b67f3e247)" d="
M176.904 259.2
L181.368 259.2
L181.368 155.818
L176.904 155.818
z
" style="fill:#0000ff;stroke:#000000;"/>
   </g>
   <g id="patch_68">
    <path clip-path="url(#p8b67f3e247)" d="
M199.224 259.2
L203.688 259.2
L203.688 163.852
L199.224 163.852
z
" style="fill:#0000ff;stroke:#000000;"/>
   </g>
   <g id="patch_69">
    <path clip-path="url(#p8b67f3e247)" d="
M221.544 259.2
L226.008 259.2
L226.008 143.603
L221.544 143.603
z
" style="fill:#0000ff;stroke:#000000;"/>
   </g>
   <g id="patch_70">
    <path clip-path="url(#p8b67f3e247)" d="
M243.864 259.2
L248.328 259.2
L248.328 164.08
L243.864 164.08
z
" style="fill:#0000ff;stroke:#000000;"/>
   </g>
   <g id="patch_71">
    <path clip-path="url(#p8b67f3e247)" d="
M266.184 259.2
L270.648 259.2
L270.648 166.334
L266.184 166.334
z
" style="fill:#0000ff;stroke:#000000;"/>
   </g>
   <g id="patch_72">
    <path clip-path="url(#p8b67f3e247)" d="
M288.504 259.2
L292.968 259.2
L292.968 162.705
L288.504 162.705
z
" style="fill:#0000ff;stroke:#000000;"/>
   </g>
   <g id="patch_73">
    <path clip-path="url(#p8b67f3e247)" d="
M310.824 259.2
L315.288 259.2
L315.288 158.765
L310.824 158.765
z
" style="fill:#0000ff;stroke:#000000;"/>
   </g>
   <g id="patch_74">
    <path clip-path="url(#p8b67f3e247)" d="
M333.144 259.2
L337.608 259.2
L337.608 155.26
L333.144 155.26
z
" style="fill:#0000ff;stroke:#000000;"/>
   </g>
   <g id="patch_75">
    <path clip-path="url(#p8b67f3e247)" d="
M355.464 259.2
L359.928 259.2
L359.928 147.549
L355.464 147.549
z
" style="fill:#0000ff;stroke:#000000;"/>
   </g>
   <g id="patch_76">
    <path clip-path="url(#p8b67f3e247)" d="
M377.784 259.2
L382.248 259.2
L382.248 147.685
L377.784 147.685
z
" style="fill:#0000ff;stroke:#000000;"/>
   </g>
   <g id="patch_77">
    <path clip-path="url(#p8b67f3e247)" d="
M400.104 259.2
L404.568 259.2
L404.568 136.491
L400.104 136.491
z
" style="fill:#0000ff;stroke:#000000;"/>
   </g>
   <g id="patch_78">
    <path clip-path="url(#p8b67f3e247)" d="
M422.424 259.2
L426.888 259.2
L426.888 135.698
L422.424 135.698
z
" style="fill:#0000ff;stroke:#000000;"/>
   </g>
   <g id="patch_79">
    <path clip-path="url(#p8b67f3e247)" d="
M444.744 259.2
L449.208 259.2
L449.208 141.599
L444.744 141.599
z
" style="fill:#0000ff;stroke:#000000;"/>
   </g>
   <g id="patch_80">
    <path clip-path="url(#p8b67f3e247)" d="
M467.064 259.2
L471.528 259.2
L471.528 136.019
L467.064 136.019
z
" style="fill:#0000ff;stroke:#000000;"/>
   </g>
   <g id="patch_81">
    <path clip-path="url(#p8b67f3e247)" d="
M489.384 259.2
L493.848 259.2
L493.848 144.59
L489.384 144.59
z
" style="fill:#0000ff;stroke:#000000;"/>
   </g>
   <g id="patch_82">
    <path clip-path="url(#p8b67f3e247)" d="
M511.704 259.2
L516.168 259.2
L516.168 140.592
L511.704 140.592
z
" style="fill:#0000ff;stroke:#000000;"/>
   </g>
   <g id="matplotlib.axis_1">
    <g id="xtick_1">
     <g id="line2d_1">
      <defs>
       <path d="
M0 0
L0 -4" id="m7ad6687eed"/>
      </defs>
      <g>
       <use style="stroke:#000000;stroke-linecap:butt;stroke-width:0.5;" x="105.48" xlink:href="#m7ad6687eed" y="259.2"/>
      </g>
     </g>
     <g id="line2d_2">
      <defs>
       <path d="
M0 0
L0 4" id="m8f4ee5c1c5"/>
      </defs>
      <g>
       <use style="stroke:#000000;stroke-linecap:butt;stroke-width:0.5;" x="105.48" xlink:href="#m8f4ee5c1c5" y="28.8"/>
      </g>
     </g>
     <g id="text_1">
      <!-- 0.5 -->
      <defs>
       <path d="
M31.7812 66.4062
Q24.1719 66.4062 20.3281 58.9062
Q16.5 51.4219 16.5 36.375
Q16.5 21.3906 20.3281 13.8906
Q24.1719 6.39062 31.7812 6.39062
Q39.4531 6.39062 43.2812 13.8906
Q47.125 21.3906 47.125 36.375
Q47.125 51.4219 43.2812 58.9062
Q39.4531 66.4062 31.7812 66.4062
M31.7812 74.2188
Q44.0469 74.2188 50.5156 64.5156
Q56.9844 54.8281 56.9844 36.375
Q56.9844 17.9688 50.5156 8.26562
Q44.0469 -1.42188 31.7812 -1.42188
Q19.5312 -1.42188 13.0625 8.26562
Q6.59375 17.9688 6.59375 36.375
Q6.59375 54.8281 13.0625 64.5156
Q19.5312 74.2188 31.7812 74.2188" id="BitstreamVeraSans-Roman-30"/>
       <path d="
M10.6875 12.4062
L21 12.4062
L21 0
L10.6875 0
z
" id="BitstreamVeraSans-Roman-2e"/>
       <path d="
M10.7969 72.9062
L49.5156 72.9062
L49.5156 64.5938
L19.8281 64.5938
L19.8281 46.7344
Q21.9688 47.4688 24.1094 47.8281
Q26.2656 48.1875 28.4219 48.1875
Q40.625 48.1875 47.75 41.5
Q54.8906 34.8125 54.8906 23.3906
Q54.8906 11.625 47.5625 5.09375
Q40.2344 -1.42188 26.9062 -1.42188
Q22.3125 -1.42188 17.5469 -0.640625
Q12.7969 0.140625 7.71875 1.70312
L7.71875 11.625
Q12.1094 9.23438 16.7969 8.0625
Q21.4844 6.89062 26.7031 6.89062
Q35.1562 6.89062 40.0781 11.3281
Q45.0156 15.7656 45.0156 23.3906
Q45.0156 31 40.0781 35.4375
Q35.1562 39.8906 26.7031 39.8906
Q22.75 39.8906 18.8125 39.0156
Q14.8906 38.1406 10.7969 36.2812
z
" id="BitstreamVeraSans-Roman-35"/>
      </defs>
      <g transform="translate(96.8578125 272.10625)scale(0.12 -0.12)">
       <use xlink:href="#BitstreamVeraSans-Roman-30"/>
       <use x="63.623046875" xlink:href="#BitstreamVeraSans-Roman-2e"/>
       <use x="95.41015625" xlink:href="#BitstreamVeraSans-Roman-35"/>
      </g>
     </g>
    </g>
    <g id="xtick_2">
     <g id="line2d_3">
      <defs>
       <path d="
M0 0
L0 -4" id="m7ad6687eed"/>
      </defs>
      <g>
       <use style="stroke:#000000;stroke-linecap:butt;stroke-width:0.5;" x="150.12" xlink:href="#m7ad6687eed" y="259.2"/>
      </g>
     </g>
     <g id="line2d_4">
      <defs>
       <path d="
M0 0
L0 4" id="m8f4ee5c1c5"/>
      </defs>
      <g>
       <use style="stroke:#000000;stroke-linecap:butt;stroke-width:0.5;" x="150.12" xlink:href="#m8f4ee5c1c5" y="28.8"/>
      </g>
     </g>
     <g id="text_2">
      <!-- 1.0 -->
      <defs>
       <path d="
M12.4062 8.29688
L28.5156 8.29688
L28.5156 63.9219
L10.9844 60.4062
L10.9844 69.3906
L28.4219 72.9062
L38.2812 72.9062
L38.2812 8.29688
L54.3906 8.29688
L54.3906 0
L12.4062 0
z
" id="BitstreamVeraSans-Roman-31"/>
      </defs>
      <g transform="translate(141.635625 272.10625)scale(0.12 -0.12)">
       <use xlink:href="#BitstreamVeraSans-Roman-31"/>
       <use x="63.623046875" xlink:href="#BitstreamVeraSans-Roman-2e"/>
       <use x="95.41015625" xlink:href="#BitstreamVeraSans-Roman-30"/>
      </g>
     </g>
    </g>
    <g id="xtick_3">
     <g id="line2d_5">
      <defs>
       <path d="
M0 0
L0 -4" id="m7ad6687eed"/>
      </defs>
      <g>
       <use style="stroke:#000000;stroke-linecap:butt;stroke-width:0.5;" x="194.76" xlink:href="#m7ad6687eed" y="259.2"/>
      </g>
     </g>
     <g id="line2d_6">
      <defs>
       <path d="
M0 0
L0 4" id="m8f4ee5c1c5"/>
      </defs>
      <g>
       <use style="stroke:#000000;stroke-linecap:butt;stroke-width:0.5;" x="194.76" xlink:href="#m8f4ee5c1c5" y="28.8"/>
      </g>
     </g>
     <g id="text_3">
      <!-- 1.5 -->
      <g transform="translate(186.40125 271.94875)scale(0.12 -0.12)">
       <use xlink:href="#BitstreamVeraSans-Roman-31"/>
       <use x="63.623046875" xlink:href="#BitstreamVeraSans-Roman-2e"/>
       <use x="95.41015625" xlink:href="#BitstreamVeraSans-Roman-35"/>
      </g>
     </g>
    </g>
    <g id="xtick_4">
     <g id="line2d_7">
      <defs>
       <path d="
M0 0
L0 -4" id="m7ad6687eed"/>
      </defs>
      <g>
       <use style="stroke:#000000;stroke-linecap:butt;stroke-width:0.5;" x="239.4" xlink:href="#m7ad6687eed" y="259.2"/>
      </g>
     </g>
     <g id="line2d_8">
      <defs>
       <path d="
M0 0
L0 4" id="m8f4ee5c1c5"/>
      </defs>
      <g>
       <use style="stroke:#000000;stroke-linecap:butt;stroke-width:0.5;" x="239.4" xlink:href="#m8f4ee5c1c5" y="28.8"/>
      </g>
     </g>
     <g id="text_4">
      <!-- 2.0 -->
      <defs>
       <path d="
M19.1875 8.29688
L53.6094 8.29688
L53.6094 0
L7.32812 0
L7.32812 8.29688
Q12.9375 14.1094 22.625 23.8906
Q32.3281 33.6875 34.8125 36.5312
Q39.5469 41.8438 41.4219 45.5312
Q43.3125 49.2188 43.3125 52.7812
Q43.3125 58.5938 39.2344 62.25
Q35.1562 65.9219 28.6094 65.9219
Q23.9688 65.9219 18.8125 64.3125
Q13.6719 62.7031 7.8125 59.4219
L7.8125 69.3906
Q13.7656 71.7812 18.9375 73
Q24.125 74.2188 28.4219 74.2188
Q39.75 74.2188 46.4844 68.5469
Q53.2188 62.8906 53.2188 53.4219
Q53.2188 48.9219 51.5312 44.8906
Q49.8594 40.875 45.4062 35.4062
Q44.1875 33.9844 37.6406 27.2188
Q31.1094 20.4531 19.1875 8.29688" id="BitstreamVeraSans-Roman-32"/>
      </defs>
      <g transform="translate(230.69625 272.10625)scale(0.12 -0.12)">
       <use xlink:href="#BitstreamVeraSans-Roman-32"/>
       <use x="63.623046875" xlink:href="#BitstreamVeraSans-Roman-2e"/>
       <use x="95.41015625" xlink:href="#BitstreamVeraSans-Roman-30"/>
      </g>
     </g>
    </g>
    <g id="xtick_5">
     <g id="line2d_9">
      <defs>
       <path d="
M0 0
L0 -4" id="m7ad6687eed"/>
      </defs>
      <g>
       <use style="stroke:#000000;stroke-linecap:butt;stroke-width:0.5;" x="284.04" xlink:href="#m7ad6687eed" y="259.2"/>
      </g>
     </g>
     <g id="line2d_10">
      <defs>
       <path d="
M0 0
L0 4" id="m8f4ee5c1c5"/>
      </defs>
      <g>
       <use style="stroke:#000000;stroke-linecap:butt;stroke-width:0.5;" x="284.04" xlink:href="#m8f4ee5c1c5" y="28.8"/>
      </g>
     </g>
     <g id="text_5">
      <!-- 2.5 -->
      <g transform="translate(275.461875 272.10625)scale(0.12 -0.12)">
       <use xlink:href="#BitstreamVeraSans-Roman-32"/>
       <use x="63.623046875" xlink:href="#BitstreamVeraSans-Roman-2e"/>
       <use x="95.41015625" xlink:href="#BitstreamVeraSans-Roman-35"/>
      </g>
     </g>
    </g>
    <g id="xtick_6">
     <g id="line2d_11">
      <defs>
       <path d="
M0 0
L0 -4" id="m7ad6687eed"/>
      </defs>
      <g>
       <use style="stroke:#000000;stroke-linecap:butt;stroke-width:0.5;" x="328.68" xlink:href="#m7ad6687eed" y="259.2"/>
      </g>
     </g>
     <g id="line2d_12">
      <defs>
       <path d="
M0 0
L0 4" id="m8f4ee5c1c5"/>
      </defs>
      <g>
       <use style="stroke:#000000;stroke-linecap:butt;stroke-width:0.5;" x="328.68" xlink:href="#m8f4ee5c1c5" y="28.8"/>
      </g>
     </g>
     <g id="text_6">
      <!-- 3.0 -->
      <defs>
       <path d="
M40.5781 39.3125
Q47.6562 37.7969 51.625 33
Q55.6094 28.2188 55.6094 21.1875
Q55.6094 10.4062 48.1875 4.48438
Q40.7656 -1.42188 27.0938 -1.42188
Q22.5156 -1.42188 17.6562 -0.515625
Q12.7969 0.390625 7.625 2.20312
L7.625 11.7188
Q11.7188 9.32812 16.5938 8.10938
Q21.4844 6.89062 26.8125 6.89062
Q36.0781 6.89062 40.9375 10.5469
Q45.7969 14.2031 45.7969 21.1875
Q45.7969 27.6406 41.2812 31.2656
Q36.7656 34.9062 28.7188 34.9062
L20.2188 34.9062
L20.2188 43.0156
L29.1094 43.0156
Q36.375 43.0156 40.2344 45.9219
Q44.0938 48.8281 44.0938 54.2969
Q44.0938 59.9062 40.1094 62.9062
Q36.1406 65.9219 28.7188 65.9219
Q24.6562 65.9219 20.0156 65.0312
Q15.375 64.1562 9.8125 62.3125
L9.8125 71.0938
Q15.4375 72.6562 20.3438 73.4375
Q25.25 74.2188 29.5938 74.2188
Q40.8281 74.2188 47.3594 69.1094
Q53.9062 64.0156 53.9062 55.3281
Q53.9062 49.2656 50.4375 45.0938
Q46.9688 40.9219 40.5781 39.3125" id="BitstreamVeraSans-Roman-33"/>
      </defs>
      <g transform="translate(319.9940625 272.10625)scale(0.12 -0.12)">
       <use xlink:href="#BitstreamVeraSans-Roman-33"/>
       <use x="63.623046875" xlink:href="#BitstreamVeraSans-Roman-2e"/>
       <use x="95.41015625" xlink:href="#BitstreamVeraSans-Roman-30"/>
      </g>
     </g>
    </g>
    <g id="xtick_7">
     <g id="line2d_13">
      <defs>
       <path d="
M0 0
L0 -4" id="m7ad6687eed"/>
      </defs>
      <g>
       <use style="stroke:#000000;stroke-linecap:butt;stroke-width:0.5;" x="373.32" xlink:href="#m7ad6687eed" y="259.2"/>
      </g>
     </g>
     <g id="line2d_14">
      <defs>
       <path d="
M0 0
L0 4" id="m8f4ee5c1c5"/>
      </defs>
      <g>
       <use style="stroke:#000000;stroke-linecap:butt;stroke-width:0.5;" x="373.32" xlink:href="#m8f4ee5c1c5" y="28.8"/>
      </g>
     </g>
     <g id="text_7">
      <!-- 3.5 -->
      <g transform="translate(364.7596875 272.10625)scale(0.12 -0.12)">
       <use xlink:href="#BitstreamVeraSans-Roman-33"/>
       <use x="63.623046875" xlink:href="#BitstreamVeraSans-Roman-2e"/>
       <use x="95.41015625" xlink:href="#BitstreamVeraSans-Roman-35"/>
      </g>
     </g>
    </g>
    <g id="xtick_8">
     <g id="line2d_15">
      <defs>
       <path d="
M0 0
L0 -4" id="m7ad6687eed"/>
      </defs>
      <g>
       <use style="stroke:#000000;stroke-linecap:butt;stroke-width:0.5;" x="417.96" xlink:href="#m7ad6687eed" y="259.2"/>
      </g>
     </g>
     <g id="line2d_16">
      <defs>
       <path d="
M0 0
L0 4" id="m8f4ee5c1c5"/>
      </defs>
      <g>
       <use style="stroke:#000000;stroke-linecap:butt;stroke-width:0.5;" x="417.96" xlink:href="#m8f4ee5c1c5" y="28.8"/>
      </g>
     </g>
     <g id="text_8">
      <!-- 4.0 -->
      <defs>
       <path d="
M37.7969 64.3125
L12.8906 25.3906
L37.7969 25.3906
z

M35.2031 72.9062
L47.6094 72.9062
L47.6094 25.3906
L58.0156 25.3906
L58.0156 17.1875
L47.6094 17.1875
L47.6094 0
L37.7969 0
L37.7969 17.1875
L4.89062 17.1875
L4.89062 26.7031
z
" id="BitstreamVeraSans-Roman-34"/>
      </defs>
      <g transform="translate(409.11 272.10625)scale(0.12 -0.12)">
       <use xlink:href="#BitstreamVeraSans-Roman-34"/>
       <use x="63.623046875" xlink:href="#BitstreamVeraSans-Roman-2e"/>
       <use x="95.41015625" xlink:href="#BitstreamVeraSans-Roman-30"/>
      </g>
     </g>
    </g>
    <g id="xtick_9">
     <g id="line2d_17">
      <defs>
       <path d="
M0 0
L0 -4" id="m7ad6687eed"/>
      </defs>
      <g>
       <use style="stroke:#000000;stroke-linecap:butt;stroke-width:0.5;" x="462.6" xlink:href="#m7ad6687eed" y="259.2"/>
      </g>
     </g>
     <g id="line2d_18">
      <defs>
       <path d="
M0 0
L0 4" id="m8f4ee5c1c5"/>
      </defs>
      <g>
       <use style="stroke:#000000;stroke-linecap:butt;stroke-width:0.5;" x="462.6" xlink:href="#m8f4ee5c1c5" y="28.8"/>
      </g>
     </g>
     <g id="text_9">
      <!-- 4.5 -->
      <g transform="translate(453.875625 271.94875)scale(0.12 -0.12)">
       <use xlink:href="#BitstreamVeraSans-Roman-34"/>
       <use x="63.623046875" xlink:href="#BitstreamVeraSans-Roman-2e"/>
       <use x="95.41015625" xlink:href="#BitstreamVeraSans-Roman-35"/>
      </g>
     </g>
    </g>
    <g id="xtick_10">
     <g id="line2d_19">
      <defs>
       <path d="
M0 0
L0 -4" id="m7ad6687eed"/>
      </defs>
      <g>
       <use style="stroke:#000000;stroke-linecap:butt;stroke-width:0.5;" x="507.24" xlink:href="#m7ad6687eed" y="259.2"/>
      </g>
     </g>
     <g id="line2d_20">
      <defs>
       <path d="
M0 0
L0 4" id="m8f4ee5c1c5"/>
      </defs>
      <g>
       <use style="stroke:#000000;stroke-linecap:butt;stroke-width:0.5;" x="507.24" xlink:href="#m8f4ee5c1c5" y="28.8"/>
      </g>
     </g>
     <g id="text_10">
      <!-- 5.0 -->
      <g transform="translate(498.5596875 272.10625)scale(0.12 -0.12)">
       <use xlink:href="#BitstreamVeraSans-Roman-35"/>
       <use x="63.623046875" xlink:href="#BitstreamVeraSans-Roman-2e"/>
       <use x="95.41015625" xlink:href="#BitstreamVeraSans-Roman-30"/>
      </g>
     </g>
    </g>
    <g id="text_11">
     <!-- File size (MB) -->
     <defs>
      <path id="BitstreamVeraSans-Roman-20"/>
      <path d="
M9.8125 72.9062
L24.5156 72.9062
L43.1094 23.2969
L61.8125 72.9062
L76.5156 72.9062
L76.5156 0
L66.8906 0
L66.8906 64.0156
L48.0938 14.0156
L38.1875 14.0156
L19.3906 64.0156
L19.3906 0
L9.8125 0
z
" id="BitstreamVeraSans-Roman-4d"/>
      <path d="
M8.01562 75.875
L15.8281 75.875
Q23.1406 64.3594 26.7812 53.3125
Q30.4219 42.2812 30.4219 31.3906
Q30.4219 20.4531 26.7812 9.375
Q23.1406 -1.70312 15.8281 -13.1875
L8.01562 -13.1875
Q14.5 -2 17.7031 9.0625
Q20.9062 20.125 20.9062 31.3906
Q20.9062 42.6719 17.7031 53.6562
Q14.5 64.6562 8.01562 75.875" id="BitstreamVeraSans-Roman-29"/>
      <path d="
M31 75.875
Q24.4688 64.6562 21.2812 53.6562
Q18.1094 42.6719 18.1094 31.3906
Q18.1094 20.125 21.3125 9.0625
Q24.5156 -2 31 -13.1875
L23.1875 -13.1875
Q15.875 -1.70312 12.2344 9.375
Q8.59375 20.4531 8.59375 31.3906
Q8.59375 42.2812 12.2031 53.3125
Q15.8281 64.3594 23.1875 75.875
z
" id="BitstreamVeraSans-Roman-28"/>
      <path d="
M9.42188 75.9844
L18.4062 75.9844
L18.4062 0
L9.42188 0
z
" id="BitstreamVeraSans-Roman-6c"/>
      <path d="
M5.51562 54.6875
L48.1875 54.6875
L48.1875 46.4844
L14.4062 7.17188
L48.1875 7.17188
L48.1875 0
L4.29688 0
L4.29688 8.20312
L38.0938 47.5156
L5.51562 47.5156
z
" id="BitstreamVeraSans-Roman-7a"/>
      <path d="
M9.8125 72.9062
L51.7031 72.9062
L51.7031 64.5938
L19.6719 64.5938
L19.6719 43.1094
L48.5781 43.1094
L48.5781 34.8125
L19.6719 34.8125
L19.6719 0
L9.8125 0
z
" id="BitstreamVeraSans-Roman-46"/>
      <path d="
M9.42188 54.6875
L18.4062 54.6875
L18.4062 0
L9.42188 0
z

M9.42188 75.9844
L18.4062 75.9844
L18.4062 64.5938
L9.42188 64.5938
z
" id="BitstreamVeraSans-Roman-69"/>
      <path d="
M19.6719 34.8125
L19.6719 8.10938
L35.5 8.10938
Q43.4531 8.10938 47.2812 11.4062
Q51.125 14.7031 51.125 21.4844
Q51.125 28.3281 47.2812 31.5625
Q43.4531 34.8125 35.5 34.8125
z

M19.6719 64.7969
L19.6719 42.8281
L34.2812 42.8281
Q41.5 42.8281 45.0312 45.5312
Q48.5781 48.25 48.5781 53.8125
Q48.5781 59.3281 45.0312 62.0625
Q41.5 64.7969 34.2812 64.7969
z

M9.8125 72.9062
L35.0156 72.9062
Q46.2969 72.9062 52.3906 68.2188
Q58.5 63.5312 58.5 54.8906
Q58.5 48.1875 55.375 44.2344
Q52.25 40.2812 46.1875 39.3125
Q53.4688 37.75 57.5 32.7812
Q61.5312 27.8281 61.5312 20.4062
Q61.5312 10.6406 54.8906 5.3125
Q48.25 0 35.9844 0
L9.8125 0
z
" id="BitstreamVeraSans-Roman-42"/>
      <path d="
M56.2031 29.5938
L56.2031 25.2031
L14.8906 25.2031
Q15.4844 15.9219 20.4844 11.0625
Q25.4844 6.20312 34.4219 6.20312
Q39.5938 6.20312 44.4531 7.46875
Q49.3125 8.73438 54.1094 11.2812
L54.1094 2.78125
Q49.2656 0.734375 44.1875 -0.34375
Q39.1094 -1.42188 33.8906 -1.42188
Q20.7969 -1.42188 13.1562 6.1875
Q5.51562 13.8125 5.51562 26.8125
Q5.51562 40.2344 12.7656 48.1094
Q20.0156 56 32.3281 56
Q43.3594 56 49.7812 48.8906
Q56.2031 41.7969 56.2031 29.5938
M47.2188 32.2344
Q47.125 39.5938 43.0938 43.9844
Q39.0625 48.3906 32.4219 48.3906
Q24.9062 48.3906 20.3906 44.1406
Q15.875 39.8906 15.1875 32.1719
z
" id="BitstreamVeraSans-Roman-65"/>
      <path d="
M44.2812 53.0781
L44.2812 44.5781
Q40.4844 46.5312 36.375 47.5
Q32.2812 48.4844 27.875 48.4844
Q21.1875 48.4844 17.8438 46.4375
Q14.5 44.3906 14.5 40.2812
Q14.5 37.1562 16.8906 35.375
Q19.2812 33.5938 26.5156 31.9844
L29.5938 31.2969
Q39.1562 29.25 43.1875 25.5156
Q47.2188 21.7812 47.2188 15.0938
Q47.2188 7.46875 41.1875 3.01562
Q35.1562 -1.42188 24.6094 -1.42188
Q20.2188 -1.42188 15.4531 -0.5625
Q10.6875 0.296875 5.42188 2
L5.42188 11.2812
Q10.4062 8.6875 15.2344 7.39062
Q20.0625 6.10938 24.8125 6.10938
Q31.1562 6.10938 34.5625 8.28125
Q37.9844 10.4531 37.9844 14.4062
Q37.9844 18.0625 35.5156 20.0156
Q33.0625 21.9688 24.7031 23.7812
L21.5781 24.5156
Q13.2344 26.2656 9.51562 29.9062
Q5.8125 33.5469 5.8125 39.8906
Q5.8125 47.6094 11.2812 51.7969
Q16.75 56 26.8125 56
Q31.7812 56 36.1719 55.2656
Q40.5781 54.5469 44.2812 53.0781" id="BitstreamVeraSans-Roman-73"/>
     </defs>
     <g transform="translate(256.2515625 286.395)scale(0.12 -0.12)">
      <use xlink:href="#BitstreamVeraSans-Roman-46"/>
      <use x="50.26953125" xlink:href="#BitstreamVeraSans-Roman-69"/>
      <use x="78.052734375" xlink:href="#BitstreamVeraSans-Roman-6c"/>
      <use x="105.8359375" xlink:href="#BitstreamVeraSans-Roman-65"/>
      <use x="167.359375" xlink:href="#BitstreamVeraSans-Roman-20"/>
      <use x="199.146484375" xlink:href="#BitstreamVeraSans-Roman-73"/>
      <use x="251.24609375" xlink:href="#BitstreamVeraSans-Roman-69"/>
      <use x="279.029296875" xlink:href="#BitstreamVeraSans-Roman-7a"/>
      <use x="331.51953125" xlink:href="#BitstreamVeraSans-Roman-65"/>
      <use x="393.04296875" xlink:href="#BitstreamVeraSans-Roman-20"/>
      <use x="424.830078125" xlink:href="#BitstreamVeraSans-Roman-28"/>
      <use x="463.84375" xlink:href="#BitstreamVeraSans-Roman-4d"/>
      <use x="550.123046875" xlink:href="#BitstreamVeraSans-Roman-42"/>
      <use x="618.7265625" xlink:href="#BitstreamVeraSans-Roman-29"/>
     </g>
    </g>
   </g>
   <g id="matplotlib.axis_2">
    <g id="ytick_1">
     <g id="line2d_21">
      <defs>
       <path d="
M0 0
L4 0" id="m1029bde67d"/>
      </defs>
      <g>
       <use style="stroke:#000000;stroke-linecap:butt;stroke-width:0.5;" x="72.0" xlink:href="#m1029bde67d" y="259.2"/>
      </g>
     </g>
     <g id="line2d_22">
      <defs>
       <path d="
M0 0
L-4 0" id="m15cf9f71bb"/>
      </defs>
      <g>
       <use style="stroke:#000000;stroke-linecap:butt;stroke-width:0.5;" x="518.4" xlink:href="#m15cf9f71bb" y="259.2"/>
      </g>
     </g>
     <g id="text_12">
      <!-- 0 -->
      <g transform="translate(61.953125 263.5678125)scale(0.12 -0.12)">
       <use xlink:href="#BitstreamVeraSans-Roman-30"/>
      </g>
     </g>
    </g>
    <g id="ytick_2">
     <g id="line2d_23">
      <defs>
       <path d="
M0 0
L4 0" id="m1029bde67d"/>
      </defs>
      <g>
       <use style="stroke:#000000;stroke-linecap:butt;stroke-width:0.5;" x="72.0" xlink:href="#m1029bde67d" y="220.8"/>
      </g>
     </g>
     <g id="line2d_24">
      <defs>
       <path d="
M0 0
L-4 0" id="m15cf9f71bb"/>
      </defs>
      <g>
       <use style="stroke:#000000;stroke-linecap:butt;stroke-width:0.5;" x="518.4" xlink:href="#m15cf9f71bb" y="220.8"/>
      </g>
     </g>
     <g id="text_13">
      <!-- 100 -->
      <g transform="translate(47.21 225.1678125)scale(0.12 -0.12)">
       <use xlink:href="#BitstreamVeraSans-Roman-31"/>
       <use x="63.623046875" xlink:href="#BitstreamVeraSans-Roman-30"/>
       <use x="127.24609375" xlink:href="#BitstreamVeraSans-Roman-30"/>
      </g>
     </g>
    </g>
    <g id="ytick_3">
     <g id="line2d_25">
      <defs>
       <path d="
M0 0
L4 0" id="m1029bde67d"/>
      </defs>
      <g>
       <use style="stroke:#000000;stroke-linecap:butt;stroke-width:0.5;" x="72.0" xlink:href="#m1029bde67d" y="182.4"/>
      </g>
     </g>
     <g id="line2d_26">
      <defs>
       <path d="
M0 0
L-4 0" id="m15cf9f71bb"/>
      </defs>
      <g>
       <use style="stroke:#000000;stroke-linecap:butt;stroke-width:0.5;" x="518.4" xlink:href="#m15cf9f71bb" y="182.4"/>
      </g>
     </g>
     <g id="text_14">
      <!-- 200 -->
      <g transform="translate(46.77125 186.7678125)scale(0.12 -0.12)">
       <use xlink:href="#BitstreamVeraSans-Roman-32"/>
       <use x="63.623046875" xlink:href="#BitstreamVeraSans-Roman-30"/>
       <use x="127.24609375" xlink:href="#BitstreamVeraSans-Roman-30"/>
      </g>
     </g>
    </g>
    <g id="ytick_4">
     <g id="line2d_27">
      <defs>
       <path d="
M0 0
L4 0" id="m1029bde67d"/>
      </defs>
      <g>
       <use style="stroke:#000000;stroke-linecap:butt;stroke-width:0.5;" x="72.0" xlink:href="#m1029bde67d" y="144.0"/>
      </g>
     </g>
     <g id="line2d_28">
      <defs>
       <path d="
M0 0
L-4 0" id="m15cf9f71bb"/>
      </defs>
      <g>
       <use style="stroke:#000000;stroke-linecap:butt;stroke-width:0.5;" x="518.4" xlink:href="#m15cf9f71bb" y="144.0"/>
      </g>
     </g>
     <g id="text_15">
      <!-- 300 -->
      <g transform="translate(46.806875 148.3678125)scale(0.12 -0.12)">
       <use xlink:href="#BitstreamVeraSans-Roman-33"/>
       <use x="63.623046875" xlink:href="#BitstreamVeraSans-Roman-30"/>
       <use x="127.24609375" xlink:href="#BitstreamVeraSans-Roman-30"/>
      </g>
     </g>
    </g>
    <g id="ytick_5">
     <g id="line2d_29">
      <defs>
       <path d="
M0 0
L4 0" id="m1029bde67d"/>
      </defs>
      <g>
       <use style="stroke:#000000;stroke-linecap:butt;stroke-width:0.5;" x="72.0" xlink:href="#m1029bde67d" y="105.6"/>
      </g>
     </g>
     <g id="line2d_30">
      <defs>
       <path d="
M0 0
L-4 0" id="m15cf9f71bb"/>
      </defs>
      <g>
       <use style="stroke:#000000;stroke-linecap:butt;stroke-width:0.5;" x="518.4" xlink:href="#m15cf9f71bb" y="105.6"/>
      </g>
     </g>
     <g id="text_16">
      <!-- 400 -->
      <g transform="translate(46.47875 109.9678125)scale(0.12 -0.12)">
       <use xlink:href="#BitstreamVeraSans-Roman-34"/>
       <use x="63.623046875" xlink:href="#BitstreamVeraSans-Roman-30"/>
       <use x="127.24609375" xlink:href="#BitstreamVeraSans-Roman-30"/>
      </g>
     </g>
    </g>
    <g id="ytick_6">
     <g id="line2d_31">
      <defs>
       <path d="
M0 0
L4 0" id="m1029bde67d"/>
      </defs>
      <g>
       <use style="stroke:#000000;stroke-linecap:butt;stroke-width:0.5;" x="72.0" xlink:href="#m1029bde67d" y="67.2"/>
      </g>
     </g>
     <g id="line2d_32">
      <defs>
       <path d="
M0 0
L-4 0" id="m15cf9f71bb"/>
      </defs>
      <g>
       <use style="stroke:#000000;stroke-linecap:butt;stroke-width:0.5;" x="518.4" xlink:href="#m15cf9f71bb" y="67.2"/>
      </g>
     </g>
     <g id="text_17">
      <!-- 500 -->
      <g transform="translate(46.818125 71.5678125)scale(0.12 -0.12)">
       <use xlink:href="#BitstreamVeraSans-Roman-35"/>
       <use x="63.623046875" xlink:href="#BitstreamVeraSans-Roman-30"/>
       <use x="127.24609375" xlink:href="#BitstreamVeraSans-Roman-30"/>
      </g>
     </g>
    </g>
    <g id="ytick_7">
     <g id="line2d_33">
      <defs>
       <path d="
M0 0
L4 0" id="m1029bde67d"/>
      </defs>
      <g>
       <use style="stroke:#000000;stroke-linecap:butt;stroke-width:0.5;" x="72.0" xlink:href="#m1029bde67d" y="28.8"/>
      </g>
     </g>
     <g id="line2d_34">
      <defs>
       <path d="
M0 0
L-4 0" id="m15cf9f71bb"/>
      </defs>
      <g>
       <use style="stroke:#000000;stroke-linecap:butt;stroke-width:0.5;" x="518.4" xlink:href="#m15cf9f71bb" y="28.8"/>
      </g>
     </g>
     <g id="text_18">
      <!-- 600 -->
      <defs>
       <path d="
M33.0156 40.375
Q26.375 40.375 22.4844 35.8281
Q18.6094 31.2969 18.6094 23.3906
Q18.6094 15.5312 22.4844 10.9531
Q26.375 6.39062 33.0156 6.39062
Q39.6562 6.39062 43.5312 10.9531
Q47.4062 15.5312 47.4062 23.3906
Q47.4062 31.2969 43.5312 35.8281
Q39.6562 40.375 33.0156 40.375
M52.5938 71.2969
L52.5938 62.3125
Q48.875 64.0625 45.0938 64.9844
Q41.3125 65.9219 37.5938 65.9219
Q27.8281 65.9219 22.6719 59.3281
Q17.5312 52.7344 16.7969 39.4062
Q19.6719 43.6562 24.0156 45.9219
Q28.375 48.1875 33.5938 48.1875
Q44.5781 48.1875 50.9531 41.5156
Q57.3281 34.8594 57.3281 23.3906
Q57.3281 12.1562 50.6875 5.35938
Q44.0469 -1.42188 33.0156 -1.42188
Q20.3594 -1.42188 13.6719 8.26562
Q6.98438 17.9688 6.98438 36.375
Q6.98438 53.6562 15.1875 63.9375
Q23.3906 74.2188 37.2031 74.2188
Q40.9219 74.2188 44.7031 73.4844
Q48.4844 72.75 52.5938 71.2969" id="BitstreamVeraSans-Roman-36"/>
      </defs>
      <g transform="translate(46.73 33.1678125)scale(0.12 -0.12)">
       <use xlink:href="#BitstreamVeraSans-Roman-36"/>
       <use x="63.623046875" xlink:href="#BitstreamVeraSans-Roman-30"/>
       <use x="127.24609375" xlink:href="#BitstreamVeraSans-Roman-30"/>
      </g>
     </g>
    </g>
    <g id="text_19">
     <!-- Throughput (MB/s) -->
     <defs>
      <path d="
M30.6094 48.3906
Q23.3906 48.3906 19.1875 42.75
Q14.9844 37.1094 14.9844 27.2969
Q14.9844 17.4844 19.1562 11.8438
Q23.3438 6.20312 30.6094 6.20312
Q37.7969 6.20312 41.9844 11.8594
Q46.1875 17.5312 46.1875 27.2969
Q46.1875 37.0156 41.9844 42.7031
Q37.7969 48.3906 30.6094 48.3906
M30.6094 56
Q42.3281 56 49.0156 48.375
Q55.7188 40.7656 55.7188 27.2969
Q55.7188 13.875 49.0156 6.21875
Q42.3281 -1.42188 30.6094 -1.42188
Q18.8438 -1.42188 12.1719 6.21875
Q5.51562 13.875 5.51562 27.2969
Q5.51562 40.7656 12.1719 48.375
Q18.8438 56 30.6094 56" id="BitstreamVeraSans-Roman-6f"/>
      <path d="
M-0.296875 72.9062
L61.375 72.9062
L61.375 64.5938
L35.5 64.5938
L35.5 0
L25.5938 0
L25.5938 64.5938
L-0.296875 64.5938
z
" id="BitstreamVeraSans-Roman-54"/>
      <path d="
M54.8906 33.0156
L54.8906 0
L45.9062 0
L45.9062 32.7188
Q45.9062 40.4844 42.875 44.3281
Q39.8438 48.1875 33.7969 48.1875
Q26.5156 48.1875 22.3125 43.5469
Q18.1094 38.9219 18.1094 30.9062
L18.1094 0
L9.07812 0
L9.07812 75.9844
L18.1094 75.9844
L18.1094 46.1875
Q21.3438 51.125 25.7031 53.5625
Q30.0781 56 35.7969 56
Q45.2188 56 50.0469 50.1719
Q54.8906 44.3438 54.8906 33.0156" id="BitstreamVeraSans-Roman-68"/>
      <path d="
M25.3906 72.9062
L33.6875 72.9062
L8.29688 -9.28125
L0 -9.28125
z
" id="BitstreamVeraSans-Roman-2f"/>
      <path d="
M45.4062 27.9844
Q45.4062 37.75 41.375 43.1094
Q37.3594 48.4844 30.0781 48.4844
Q22.8594 48.4844 18.8281 43.1094
Q14.7969 37.75 14.7969 27.9844
Q14.7969 18.2656 18.8281 12.8906
Q22.8594 7.51562 30.0781 7.51562
Q37.3594 7.51562 41.375 12.8906
Q45.4062 18.2656 45.4062 27.9844
M54.3906 6.78125
Q54.3906 -7.17188 48.1875 -13.9844
Q42 -20.7969 29.2031 -20.7969
Q24.4688 -20.7969 20.2656 -20.0938
Q16.0625 -19.3906 12.1094 -17.9219
L12.1094 -9.1875
Q16.0625 -11.3281 19.9219 -12.3438
Q23.7812 -13.375 27.7812 -13.375
Q36.625 -13.375 41.0156 -8.76562
Q45.4062 -4.15625 45.4062 5.17188
L45.4062 9.625
Q42.625 4.78125 38.2812 2.39062
Q33.9375 0 27.875 0
Q17.8281 0 11.6719 7.65625
Q5.51562 15.3281 5.51562 27.9844
Q5.51562 40.6719 11.6719 48.3281
Q17.8281 56 27.875 56
Q33.9375 56 38.2812 53.6094
Q42.625 51.2188 45.4062 46.3906
L45.4062 54.6875
L54.3906 54.6875
z
" id="BitstreamVeraSans-Roman-67"/>
      <path d="
M8.5 21.5781
L8.5 54.6875
L17.4844 54.6875
L17.4844 21.9219
Q17.4844 14.1562 20.5 10.2656
Q23.5312 6.39062 29.5938 6.39062
Q36.8594 6.39062 41.0781 11.0312
Q45.3125 15.6719 45.3125 23.6875
L45.3125 54.6875
L54.2969 54.6875
L54.2969 0
L45.3125 0
L45.3125 8.40625
Q42.0469 3.42188 37.7188 1
Q33.4062 -1.42188 27.6875 -1.42188
Q18.2656 -1.42188 13.375 4.4375
Q8.5 10.2969 8.5 21.5781" id="BitstreamVeraSans-Roman-75"/>
      <path d="
M41.1094 46.2969
Q39.5938 47.1719 37.8125 47.5781
Q36.0312 48 33.8906 48
Q26.2656 48 22.1875 43.0469
Q18.1094 38.0938 18.1094 28.8125
L18.1094 0
L9.07812 0
L9.07812 54.6875
L18.1094 54.6875
L18.1094 46.1875
Q20.9531 51.1719 25.4844 53.5781
Q30.0312 56 36.5312 56
Q37.4531 56 38.5781 55.875
Q39.7031 55.7656 41.0625 55.5156
z
" id="BitstreamVeraSans-Roman-72"/>
      <path d="
M18.3125 70.2188
L18.3125 54.6875
L36.8125 54.6875
L36.8125 47.7031
L18.3125 47.7031
L18.3125 18.0156
Q18.3125 11.3281 20.1406 9.42188
Q21.9688 7.51562 27.5938 7.51562
L36.8125 7.51562
L36.8125 0
L27.5938 0
Q17.1875 0 13.2344 3.875
Q9.28125 7.76562 9.28125 18.0156
L9.28125 47.7031
L2.6875 47.7031
L2.6875 54.6875
L9.28125 54.6875
L9.28125 70.2188
z
" id="BitstreamVeraSans-Roman-74"/>
      <path d="
M18.1094 8.20312
L18.1094 -20.7969
L9.07812 -20.7969
L9.07812 54.6875
L18.1094 54.6875
L18.1094 46.3906
Q20.9531 51.2656 25.2656 53.625
Q29.5938 56 35.5938 56
Q45.5625 56 51.7812 48.0938
Q58.0156 40.1875 58.0156 27.2969
Q58.0156 14.4062 51.7812 6.48438
Q45.5625 -1.42188 35.5938 -1.42188
Q29.5938 -1.42188 25.2656 0.953125
Q20.9531 3.32812 18.1094 8.20312
M48.6875 27.2969
Q48.6875 37.2031 44.6094 42.8438
Q40.5312 48.4844 33.4062 48.4844
Q26.2656 48.4844 22.1875 42.8438
Q18.1094 37.2031 18.1094 27.2969
Q18.1094 17.3906 22.1875 11.75
Q26.2656 6.10938 33.4062 6.10938
Q40.5312 6.10938 44.6094 11.75
Q48.6875 17.3906 48.6875 27.2969" id="BitstreamVeraSans-Roman-70"/>
     </defs>
     <g transform="translate(41.47875 196.8834375)rotate(-90.0)scale(0.12 -0.12)">
      <use xlink:href="#BitstreamVeraSans-Roman-54"/>
      <use x="61.083984375" xlink:href="#BitstreamVeraSans-Roman-68"/>
      <use x="124.462890625" xlink:href="#BitstreamVeraSans-Roman-72"/>
      <use x="163.326171875" xlink:href="#BitstreamVeraSans-Roman-6f"/>
      <use x="224.5078125" xlink:href="#BitstreamVeraSans-Roman-75"/>
      <use x="287.88671875" xlink:href="#BitstreamVeraSans-Roman-67"/>
      <use x="351.36328125" xlink:href="#BitstreamVeraSans-Roman-68"/>
      <use x="414.7421875" xlink:href="#BitstreamVeraSans-Roman-70"/>
      <use x="478.21875" xlink:href="#BitstreamVeraSans-Roman-75"/>
      <use x="541.59765625" xlink:href="#BitstreamVeraSans-Roman-74"/>
      <use x="580.806640625" xlink:href="#BitstreamVeraSans-Roman-20"/>
      <use x="612.59375" xlink:href="#BitstreamVeraSans-Roman-28"/>
      <use x="651.607421875" xlink:href="#BitstreamVeraSans-Roman-4d"/>
      <use x="737.88671875" xlink:href="#BitstreamVeraSans-Roman-42"/>
      <use x="806.490234375" xlink:href="#BitstreamVeraSans-Roman-2f"/>
      <use x="840.181640625" xlink:href="#BitstreamVeraSans-Roman-73"/>
      <use x="892.28125" xlink:href="#BitstreamVeraSans-Roman-29"/>
     </g>
    </g>
   </g>
   <g id="patch_83">
    <path d="
M72 28.8
L518.4 28.8" style="fill:none;stroke:#000000;"/>
   </g>
   <g id="patch_84">
    <path d="
M518.4 259.2
L518.4 28.8" style="fill:none;stroke:#000000;"/>
   </g>
   <g id="patch_85">
    <path d="
M72 259.2
L518.4 259.2" style="fill:none;stroke:#000000;"/>
   </g>
   <g id="patch_86">
    <path d="
M72 259.2
L72 28.8" style="fill:none;stroke:#000000;"/>
   </g>
   <g id="legend_1">
    <g id="patch_87">
     <path d="
M75 67.665
L145.241 67.665
L145.241 31.8
L75 31.8
L75 67.665
z
" style="fill:#ffffff;stroke:#000000;"/>
    </g>
    <g id="patch_88">
     <path d="
M77.4 38.7591
L89.4 38.7591
L89.4 34.5591
L77.4 34.5591
z
" style="fill:#ff0000;stroke:#000000;"/>
    </g>
    <g id="text_20">
     <!-- Sequential write -->
     <defs>
      <path d="
M54.8906 33.0156
L54.8906 0
L45.9062 0
L45.9062 32.7188
Q45.9062 40.4844 42.875 44.3281
Q39.8438 48.1875 33.7969 48.1875
Q26.5156 48.1875 22.3125 43.5469
Q18.1094 38.9219 18.1094 30.9062
L18.1094 0
L9.07812 0
L9.07812 54.6875
L18.1094 54.6875
L18.1094 46.1875
Q21.3438 51.125 25.7031 53.5625
Q30.0781 56 35.7969 56
Q45.2188 56 50.0469 50.1719
Q54.8906 44.3438 54.8906 33.0156" id="BitstreamVeraSans-Roman-6e"/>
      <path d="
M4.20312 54.6875
L13.1875 54.6875
L24.4219 12.0156
L35.5938 54.6875
L46.1875 54.6875
L57.4219 12.0156
L68.6094 54.6875
L77.5938 54.6875
L63.2812 0
L52.6875 0
L40.9219 44.8281
L29.1094 0
L18.5 0
z
" id="BitstreamVeraSans-Roman-77"/>
      <path d="
M53.5156 70.5156
L53.5156 60.8906
Q47.9062 63.5781 42.9219 64.8906
Q37.9375 66.2188 33.2969 66.2188
Q25.25 66.2188 20.875 63.0938
Q16.5 59.9688 16.5 54.2031
Q16.5 49.3594 19.4062 46.8906
Q22.3125 44.4375 30.4219 42.9219
L36.375 41.7031
Q47.4062 39.5938 52.6562 34.2969
Q57.9062 29 57.9062 20.125
Q57.9062 9.51562 50.7969 4.04688
Q43.7031 -1.42188 29.9844 -1.42188
Q24.8125 -1.42188 18.9688 -0.25
Q13.1406 0.921875 6.89062 3.21875
L6.89062 13.375
Q12.8906 10.0156 18.6562 8.29688
Q24.4219 6.59375 29.9844 6.59375
Q38.4219 6.59375 43.0156 9.90625
Q47.6094 13.2344 47.6094 19.3906
Q47.6094 24.75 44.3125 27.7812
Q41.0156 30.8125 33.5 32.3281
L27.4844 33.5
Q16.4531 35.6875 11.5156 40.375
Q6.59375 45.0625 6.59375 53.4219
Q6.59375 63.0938 13.4062 68.6562
Q20.2188 74.2188 32.1719 74.2188
Q37.3125 74.2188 42.625 73.2812
Q47.9531 72.3594 53.5156 70.5156" id="BitstreamVeraSans-Roman-53"/>
      <path d="
M34.2812 27.4844
Q23.3906 27.4844 19.1875 25
Q14.9844 22.5156 14.9844 16.5
Q14.9844 11.7188 18.1406 8.90625
Q21.2969 6.10938 26.7031 6.10938
Q34.1875 6.10938 38.7031 11.4062
Q43.2188 16.7031 43.2188 25.4844
L43.2188 27.4844
z

M52.2031 31.2031
L52.2031 0
L43.2188 0
L43.2188 8.29688
Q40.1406 3.32812 35.5469 0.953125
Q30.9531 -1.42188 24.3125 -1.42188
Q15.9219 -1.42188 10.9531 3.29688
Q6 8.01562 6 15.9219
Q6 25.1406 12.1719 29.8281
Q18.3594 34.5156 30.6094 34.5156
L43.2188 34.5156
L43.2188 35.4062
Q43.2188 41.6094 39.1406 45
Q35.0625 48.3906 27.6875 48.3906
Q23 48.3906 18.5469 47.2656
Q14.1094 46.1406 10.0156 43.8906
L10.0156 52.2031
Q14.9375 54.1094 19.5781 55.0469
Q24.2188 56 28.6094 56
Q40.4844 56 46.3438 49.8438
Q52.2031 43.7031 52.2031 31.2031" id="BitstreamVeraSans-Roman-61"/>
      <path d="
M14.7969 27.2969
Q14.7969 17.3906 18.875 11.75
Q22.9531 6.10938 30.0781 6.10938
Q37.2031 6.10938 41.2969 11.75
Q45.4062 17.3906 45.4062 27.2969
Q45.4062 37.2031 41.2969 42.8438
Q37.2031 48.4844 30.0781 48.4844
Q22.9531 48.4844 18.875 42.8438
Q14.7969 37.2031 14.7969 27.2969
M45.4062 8.20312
Q42.5781 3.32812 38.25 0.953125
Q33.9375 -1.42188 27.875 -1.42188
Q17.9688 -1.42188 11.7344 6.48438
Q5.51562 14.4062 5.51562 27.2969
Q5.51562 40.1875 11.7344 48.0938
Q17.9688 56 27.875 56
Q33.9375 56 38.25 53.625
Q42.5781 51.2656 45.4062 46.3906
L45.4062 54.6875
L54.3906 54.6875
L54.3906 -20.7969
L45.4062 -20.7969
z
" id="BitstreamVeraSans-Roman-71"/>
     </defs>
     <g transform="translate(94.2 38.7590625)scale(0.06 -0.06)">
      <use xlink:href="#BitstreamVeraSans-Roman-53"/>
      <use x="63.4765625" xlink:href="#BitstreamVeraSans-Roman-65"/>
      <use x="125.0" xlink:href="#BitstreamVeraSans-Roman-71"/>
      <use x="188.4765625" xlink:href="#BitstreamVeraSans-Roman-75"/>
      <use x="251.85546875" xlink:href="#BitstreamVeraSans-Roman-65"/>
      <use x="313.37890625" xlink:href="#BitstreamVeraSans-Roman-6e"/>
      <use x="376.7578125" xlink:href="#BitstreamVeraSans-Roman-74"/>
      <use x="415.966796875" xlink:href="#BitstreamVeraSans-Roman-69"/>
      <use x="443.75" xlink:href="#BitstreamVeraSans-Roman-61"/>
      <use x="505.029296875" xlink:href="#BitstreamVeraSans-Roman-6c"/>
      <use x="532.8125" xlink:href="#BitstreamVeraSans-Roman-20"/>
      <use x="564.599609375" xlink:href="#BitstreamVeraSans-Roman-77"/>
      <use x="646.38671875" xlink:href="#BitstreamVeraSans-Roman-72"/>
      <use x="687.5" xlink:href="#BitstreamVeraSans-Roman-69"/>
      <use x="715.283203125" xlink:href="#BitstreamVeraSans-Roman-74"/>
      <use x="754.4921875" xlink:href="#BitstreamVeraSans-Roman-65"/>
     </g>
    </g>
    <g id="patch_89">
     <path d="
M77.4 47.5659
L89.4 47.5659
L89.4 43.3659
L77.4 43.3659
z
" style="fill:#008000;stroke:#000000;"/>
    </g>
    <g id="text_21">
     <!-- Sequential read -->
     <defs>
      <path d="
M45.4062 46.3906
L45.4062 75.9844
L54.3906 75.9844
L54.3906 0
L45.4062 0
L45.4062 8.20312
Q42.5781 3.32812 38.25 0.953125
Q33.9375 -1.42188 27.875 -1.42188
Q17.9688 -1.42188 11.7344 6.48438
Q5.51562 14.4062 5.51562 27.2969
Q5.51562 40.1875 11.7344 48.0938
Q17.9688 56 27.875 56
Q33.9375 56 38.25 53.625
Q42.5781 51.2656 45.4062 46.3906
M14.7969 27.2969
Q14.7969 17.3906 18.875 11.75
Q22.9531 6.10938 30.0781 6.10938
Q37.2031 6.10938 41.2969 11.75
Q45.4062 17.3906 45.4062 27.2969
Q45.4062 37.2031 41.2969 42.8438
Q37.2031 48.4844 30.0781 48.4844
Q22.9531 48.4844 18.875 42.8438
Q14.7969 37.2031 14.7969 27.2969" id="BitstreamVeraSans-Roman-64"/>
     </defs>
     <g transform="translate(94.2 47.5659375)scale(0.06 -0.06)">
      <use xlink:href="#BitstreamVeraSans-Roman-53"/>
      <use x="63.4765625" xlink:href="#BitstreamVeraSans-Roman-65"/>
      <use x="125.0" xlink:href="#BitstreamVeraSans-Roman-71"/>
      <use x="188.4765625" xlink:href="#BitstreamVeraSans-Roman-75"/>
      <use x="251.85546875" xlink:href="#BitstreamVeraSans-Roman-65"/>
      <use x="313.37890625" xlink:href="#BitstreamVeraSans-Roman-6e"/>
      <use x="376.7578125" xlink:href="#BitstreamVeraSans-Roman-74"/>
      <use x="415.966796875" xlink:href="#BitstreamVeraSans-Roman-69"/>
      <use x="443.75" xlink:href="#BitstreamVeraSans-Roman-61"/>
      <use x="505.029296875" xlink:href="#BitstreamVeraSans-Roman-6c"/>
      <use x="532.8125" xlink:href="#BitstreamVeraSans-Roman-20"/>
      <use x="564.599609375" xlink:href="#BitstreamVeraSans-Roman-72"/>
      <use x="603.462890625" xlink:href="#BitstreamVeraSans-Roman-65"/>
      <use x="664.986328125" xlink:href="#BitstreamVeraSans-Roman-61"/>
      <use x="726.265625" xlink:href="#BitstreamVeraSans-Roman-64"/>
     </g>
    </g>
    <g id="patch_90">
     <path d="
M77.4 56.3728
L89.4 56.3728
L89.4 52.1728
L77.4 52.1728
z
" style="fill:#bfbf00;stroke:#000000;"/>
    </g>
    <g id="text_22">
     <!-- Random write -->
     <defs>
      <path d="
M52 44.1875
Q55.375 50.25 60.0625 53.125
Q64.75 56 71.0938 56
Q79.6406 56 84.2812 50.0156
Q88.9219 44.0469 88.9219 33.0156
L88.9219 0
L79.8906 0
L79.8906 32.7188
Q79.8906 40.5781 77.0938 44.375
Q74.3125 48.1875 68.6094 48.1875
Q61.625 48.1875 57.5625 43.5469
Q53.5156 38.9219 53.5156 30.9062
L53.5156 0
L44.4844 0
L44.4844 32.7188
Q44.4844 40.625 41.7031 44.4062
Q38.9219 48.1875 33.1094 48.1875
Q26.2188 48.1875 22.1562 43.5312
Q18.1094 38.875 18.1094 30.9062
L18.1094 0
L9.07812 0
L9.07812 54.6875
L18.1094 54.6875
L18.1094 46.1875
Q21.1875 51.2188 25.4844 53.6094
Q29.7812 56 35.6875 56
Q41.6562 56 45.8281 52.9688
Q50 49.9531 52 44.1875" id="BitstreamVeraSans-Roman-6d"/>
      <path d="
M44.3906 34.1875
Q47.5625 33.1094 50.5625 29.5938
Q53.5625 26.0781 56.5938 19.9219
L66.6094 0
L56 0
L46.6875 18.7031
Q43.0625 26.0312 39.6719 28.4219
Q36.2812 30.8125 30.4219 30.8125
L19.6719 30.8125
L19.6719 0
L9.8125 0
L9.8125 72.9062
L32.0781 72.9062
Q44.5781 72.9062 50.7344 67.6719
Q56.8906 62.4531 56.8906 51.9062
Q56.8906 45.0156 53.6875 40.4688
Q50.4844 35.9375 44.3906 34.1875
M19.6719 64.7969
L19.6719 38.9219
L32.0781 38.9219
Q39.2031 38.9219 42.8438 42.2188
Q46.4844 45.5156 46.4844 51.9062
Q46.4844 58.2969 42.8438 61.5469
Q39.2031 64.7969 32.0781 64.7969
z
" id="BitstreamVeraSans-Roman-52"/>
     </defs>
     <g transform="translate(94.2 56.3728125)scale(0.06 -0.06)">
      <use xlink:href="#BitstreamVeraSans-Roman-52"/>
      <use x="67.232421875" xlink:href="#BitstreamVeraSans-Roman-61"/>
      <use x="128.51171875" xlink:href="#BitstreamVeraSans-Roman-6e"/>
      <use x="191.890625" xlink:href="#BitstreamVeraSans-Roman-64"/>
      <use x="255.3671875" xlink:href="#BitstreamVeraSans-Roman-6f"/>
      <use x="316.548828125" xlink:href="#BitstreamVeraSans-Roman-6d"/>
      <use x="413.9609375" xlink:href="#BitstreamVeraSans-Roman-20"/>
      <use x="445.748046875" xlink:href="#BitstreamVeraSans-Roman-77"/>
      <use x="527.53515625" xlink:href="#BitstreamVeraSans-Roman-72"/>
      <use x="568.6484375" xlink:href="#BitstreamVeraSans-Roman-69"/>
      <use x="596.431640625" xlink:href="#BitstreamVeraSans-Roman-74"/>
      <use x="635.640625" xlink:href="#BitstreamVeraSans-Roman-65"/>
     </g>
    </g>
    <g id="patch_91">
     <path d="
M77.4 65.1797
L89.4 65.1797
L89.4 60.9797
L77.4 60.9797
z
" style="fill:#0000ff;stroke:#000000;"/>
    </g>
    <g id="text_23">
     <!-- Random read -->
     <g transform="translate(94.2 65.1796875)scale(0.06 -0.06)">
      <use xlink:href="#BitstreamVeraSans-Roman-52"/>
      <use x="67.232421875" xlink:href="#BitstreamVeraSans-Roman-61"/>
      <use x="128.51171875" xlink:href="#BitstreamVeraSans-Roman-6e"/>
      <use x="191.890625" xlink:href="#BitstreamVeraSans-Roman-64"/>
      <use x="255.3671875" xlink:href="#BitstreamVeraSans-Roman-6f"/>
      <use x="316.548828125" xlink:href="#BitstreamVeraSans-Roman-6d"/>
      <use x="413.9609375" xlink:href="#BitstreamVeraSans-Roman-20"/>
      <use x="445.748046875" xlink:href="#BitstreamVeraSans-Roman-72"/>
      <use x="484.611328125" xlink:href="#BitstreamVeraSans-Roman-65"/>
      <use x="546.134765625" xlink:href="#BitstreamVeraSans-Roman-61"/>
      <use x="607.4140625" xlink:href="#BitstreamVeraSans-Roman-64"/>
     </g>
    </g>
   </g>
  </g>
 </g>
 <defs>
  <clipPath id="p8b67f3e247">
   <rect height="230.4" width="446.4" x="72.0" y="28.8"/>
  </clipPath>
 </defs>
</svg>
